<svg width="16" height="16" viewBox="0 0 16 16" fill="none" xmlns="http://www.w3.org/2000/svg">
<path d="M12.5306 4.52994L5.8125 11.2499H10.5C10.6989 11.2499 10.8897 11.329 11.0303 11.4696C11.171 11.6103 11.25 11.801 11.25 11.9999C11.25 12.1989 11.171 12.3896 11.0303 12.5303C10.8897 12.6709 10.6989 12.7499 10.5 12.7499H4C3.80109 12.7499 3.61032 12.6709 3.46967 12.5303C3.32902 12.3896 3.25 12.1989 3.25 11.9999V5.49994C3.25 5.30103 3.32902 5.11027 3.46967 4.96961C3.61032 4.82896 3.80109 4.74994 4 4.74994C4.19891 4.74994 4.38968 4.82896 4.53033 4.96961C4.67098 5.11027 4.75 5.30103 4.75 5.49994V10.1874L11.4694 3.46932C11.5391 3.39955 11.622 3.34421 11.7131 3.30646C11.8043 3.2687 11.902 3.24927 12.0006 3.24927C12.0993 3.24927 12.197 3.2687 12.2881 3.30646C12.3793 3.34421 12.4621 3.39955 12.5319 3.46932C12.6016 3.53908 12.657 3.62191 12.6947 3.71306C12.7325 3.80421 12.7519 3.90191 12.7519 4.00057C12.7519 4.09923 12.7325 4.19693 12.6947 4.28808C12.657 4.37923 12.6016 4.46205 12.5319 4.53182L12.5306 4.52994Z" fill="#7F6CE4"/>
</svg>
