<svg width="15" height="15" viewBox="0 0 15 15" fill="none" xmlns="http://www.w3.org/2000/svg">
<path d="M13.6224 12.6275L10.8398 9.84375C11.6741 8.75653 12.0637 7.39265 11.9294 6.02879C11.7951 4.66494 11.147 3.40322 10.1167 2.4996C9.08634 1.59598 7.75086 1.11812 6.38114 1.16294C5.01142 1.20777 3.71003 1.77194 2.74097 2.74099C1.77192 3.71005 1.20775 5.01143 1.16293 6.38115C1.1181 7.75087 1.59596 9.08636 2.49958 10.1167C3.4032 11.1471 4.66492 11.7951 6.02877 11.9294C7.39263 12.0637 8.75651 11.6742 9.84373 10.8398L12.6287 13.6254C12.6941 13.6908 12.7717 13.7427 12.8572 13.7781C12.9427 13.8135 13.0342 13.8317 13.1267 13.8317C13.2192 13.8317 13.3108 13.8135 13.3963 13.7781C13.4817 13.7427 13.5594 13.6908 13.6248 13.6254C13.6902 13.56 13.7421 13.4823 13.7775 13.3969C13.8129 13.3114 13.8311 13.2198 13.8311 13.1273C13.8311 13.0348 13.8129 12.9433 13.7775 12.8578C13.7421 12.7723 13.6902 12.6947 13.6248 12.6293L13.6224 12.6275ZM2.57811 6.5625C2.57811 5.77447 2.81179 5.00413 3.24959 4.3489C3.6874 3.69367 4.30968 3.18299 5.03773 2.88142C5.76578 2.57985 6.5669 2.50095 7.33979 2.65468C8.11269 2.80842 8.82264 3.1879 9.37986 3.74512C9.93709 4.30235 10.3166 5.01229 10.4703 5.78519C10.624 6.55808 10.5451 7.3592 10.2436 8.08725C9.942 8.8153 9.43131 9.43758 8.77608 9.87539C8.12085 10.3132 7.35052 10.5469 6.56248 10.5469C5.50609 10.5458 4.49328 10.1257 3.7463 9.37868C2.99932 8.6317 2.57919 7.61889 2.57811 6.5625Z" fill="white"/>
</svg>
